<svg width="760px" height="400px" xmlns="http://www.w3.org/2000/svg" version="1.1">
    <g>
        <g color="white" id="google" transform="translate(0,-50)">
            <circle cx="170" cy="170" r="109" fill="currentColor">
            </circle>
        
            <text x="290" y="170" font-family="Verdana" font-size="55" fill="white">Google</text>
            <text x="290" y="230" font-family="Verdana" font-size="55" fill="white">92,71%</text>
            <g transform="translate(90,90) scale(.3)">
                <path fill="#4285F4" d="M533.5,278.4c0-18.5-1.5-37.1-4.7-55.3H272.1v104.8h147c-6.1,33.8-25.7,63.7-54.4,82.7v68h87.7   C503.9,431.2,533.5,361.2,533.5,278.4z"/>
                <path fill="#34A853" d="M272.1,544.3c73.4,0,135.3-24.1,180.4-65.7l-87.7-68c-24.4,16.6-55.9,26-92.6,26c-71,0-131.2-47.9-152.8-112.3   H28.9v70.1C75.1,486.3,169.2,544.3,272.1,544.3z"/>
                <path fill="#FBBC04" d="M119.3,324.3c-11.4-33.8-11.4-70.4,0-104.2V150H28.9c-38.6,76.9-38.6,167.5,0,244.4L119.3,324.3z"/>
                <path fill="#EA4335" d="M272.1,107.7c38.8-0.6,76.3,14,104.4,40.8l0,0l77.7-77.7C405,24.6,339.7-0.8,272.1,0C169.2,0,75.1,58,28.9,150   l90.4,70.1C140.8,155.6,201.1,107.7,272.1,107.7z"/>
            </g>
        </g>
        <g color="#008373" id="bing" transform="translate(0,260)">
            <circle cx="170" cy="0" r="17"  fill="currentColor"/>
            <text x="200" y="0" font-family="Verdana" font-size="9" fill="white">Bing 2,32%</text>
            <g transform="translate(163,-12) scale(.5)">
                <!--<path fill="white" d="M50 40v-29.994h8.533a9.326 9.326 0 0 1 6.17 1.9 6.155 6.155 0 0 1 2.28 4.957 7.294 7.294 0 0 1-1.383 4.437 7.43 7.43 0 0 1-3.8 2.676v.084a7.635 7.635 0 0 1 4.852 2.29 7.047 7.047 0 0 1 1.819 5.03 7.843 7.843 0 0 1-2.76 6.233 10.274 10.274 0 0 1-6.968 2.387zm3.514-26.813v9.683h3.6a6.831 6.831 0 0 0 4.54-1.391 4.842 4.842 0 0 0 1.646-3.924q0-4.372-5.752-4.371zm0 12.842v10.79h4.769a7.148 7.148 0 0 0 4.8-1.464 5.013 5.013 0 0 0 1.705-4.016q0-5.312-7.236-5.312zm23.439-14.462a2.129 2.129 0 0 0-.644-1.558 2.172 2.172 0 0 0-1.6-.645 2.121 2.121 0 0 0-1.589.655 2.147 2.147 0 0 0-.634 1.548 2.119 2.119 0 0 0 .644 1.611 2.314 2.314 0 0 0 3.159-.02 2.114 2.114 0 0 0 .664-1.591m-.583 7.146h-3.407v21.275h3.407zm23.342 8.258a10.115 10.115 0 0 0-1.838-6.482 6.467 6.467 0 0 0-5.351-2.289 7.641 7.641 0 0 0-6.981 4.051h-.084v-3.529h-3.408v21.278h3.408v-12.137a7.024 7.024 0 0 1 1.694-4.851 5.409 5.409 0 0 1 4.207-1.9q4.945 0 4.945 6.751v12.137h3.407zm24.053 11.323q0 11.7-11.219 11.7a15.416 15.416 0 0 1-6.9-1.475l.892-2.942a11.942 11.942 0 0 0 5.944 1.529q7.874 0 7.874-8.331v-2.352h-.084a7.958 7.958 0 0 1-7.313 4.093 8.192 8.192 0 0 1-7.708-4.966 13.015 13.015 0 0 1-1.1-5.507q0-5.442 2.65-8.642a8.737 8.737 0 0 1 7.094-3.2 6.936 6.936 0 0 1 6.378 3.449h.084v-2.93h3.407v19.574zm-3.407-7.916v-3.137a5.943 5.943 0 0 0-1.766-4.353 5.747 5.747 0 0 0-4.218-1.776 5.9 5.9 0 0 0-4.954 2.306 10.3 10.3 0 0 0-1.776 6.42 8.773 8.773 0 0 0 1.7 5.63 5.515 5.515 0 0 0 4.549 2.14 5.953 5.953 0 0 0 4.654-2.025 7.527 7.527 0 0 0 1.807-5.2"></path>-->
                <path fill="white" d="M35 24.25l-22.177-7.761 4.338 10.82 6.923 3.225h10.916v-6.284z" opacity=".7"></path>
                <path fill="white" d="M10 38.642v-35.142l-10-3.5v44.4l10 5.6 25-14.382v-11.368z"></path>
            </g>
        </g>
        <g id="yahoo" color="#5f01d1" transform="translate(0,300)">
            <circle cx="170" cy="0" r="14"  fill="currentColor"/>
            <text x="200" y="0" font-family="Verdana" font-size="8" fill="white">Yahoo! 1,59%</text>
            <g transform="translate(180,2) scale(0.25)" color="white">
                <path fill="currentColor" d="m -260.95542,-23.351576 h 15.74097 l 9.16577,23.44971543 9.28475,-23.44971543 h 15.32641 l -23.07818,55.513102 h -15.42354 l 6.31728,-14.710096 z" transform="translate(180,0)"/>
                <!--<path fill="currentColor" d="m -195.47141,-24.285092 c -11.82693,0 -19.30359,10.60691 -19.30359,21.1697058 0,11.886248 8.19723,21.3099212 19.07922,21.3099212 8.11755,0 11.17827,-4.945745 11.17827,-4.945745 v 3.852645 h 13.72915 v -40.452766 h -13.72915 v 3.677524 c 0,0 -3.41477,-4.611285 -10.9539,-4.611285 z m 2.92026,12.999928 c 5.45704,0 8.27307,4.3180081 8.27307,8.2142225 0,4.1954942 -3.01696,8.3127463 -8.27307,8.3127463 -4.35623,0 -8.29289,-3.559984 -8.29289,-8.1341932 0,-4.6389336 3.16648,-8.3927756 8.29289,-8.3927756 z"/>
                <path fill="currentColor" d="m -166.06011,17.10119 v -58.315029 h 14.35985 v 21.680094 c 0,0 3.41082,-4.746342 10.5543,-4.746342 8.73797,0 13.85746,6.510502 13.85746,15.813727 v 25.56755 h -14.25479 V -4.9639552 c 0,-3.148416 -1.49969,-6.1899038 -4.89676,-6.1899038 -3.45803,0 -5.26021,3.0875793 -5.26021,6.1899038 V 17.10119 Z"/>
                <path fill="currentColor" d="m -102.80546,-24.280304 c -13.54405,0 -21.60888,10.298919 -21.60888,21.3332079 0,12.5572045 9.76468,21.1416311 21.66017,21.1416311 11.529646,0 21.618462,-8.1948543 21.618462,-20.9309613 0,-13.9356097 -10.563298,-21.5438777 -21.669752,-21.5438777 z m 0.12933,13.114187 c 4.784243,0 8.094514,3.9847543 8.094514,8.2340454 0,3.62432286 -3.084573,8.0945471 -8.094514,8.0945471 -4.5906,0 -8.03569,-3.6823588 -8.03569,-8.1341932 0,-4.2885533 2.86425,-8.1943993 8.03569,-8.1943993 z"/>
                <path fill="currentColor" d="m -57.212888,-24.280304 c -13.544038,0 -21.608877,10.298919 -21.608877,21.3332079 0,12.5572045 9.764684,21.1416311 21.660172,21.1416311 11.529647,0 21.618463,-8.1948543 21.618463,-20.9309613 0,-13.9356097 -10.563285,-21.5438777 -21.669758,-21.5438777 z m 0.12933,13.114187 c 4.784232,0 8.094517,3.9847543 8.094517,8.2340454 0,3.62432286 -3.084586,8.0945471 -8.094517,8.0945471 -4.59061,0 -8.035691,-3.6823588 -8.035691,-8.1341932 0,-4.2885533 2.864249,-8.1943993 8.035691,-8.1943993 z"/>-->
                <circle fill="currentColor" cx="-24.212173" cy="8.4245415" r="9.5354834" />
                <path fill="currentColor" d="M -11.543414,-4.6137152 H -28.709769 L -13.474345,-41.213839 H 3.627914 Z"/>
            </g>
        </g>
        <g id="ecosia" color="white" transform="translate(0,335)">
            <circle cx="170" cy="0" r="12" fill="currentColor"/>
            <text x="200" y="0" font-family="Verdana" font-size="7" fill="white">Ecosia 1,20%</text>
            <g transform="translate(158,-12) scale(0.5)">
                <path d="M24 35c-6.102 0-11-4.898-11-11s4.898-11 11-11 11 4.898 11 11-4.898 11-11 11zM22.898 8S21.5 6.8 21.5 4.5c0-2.102 1.102-3.5 1.102-3.5S24 2.2 24 4.5C24 7.2 22.898 8 22.898 8zm7.204 1S29.5 7 30.8 5.2C32 3.5 33.8 3 33.8 3s.597 1.898-.7 3.8c-1.5 2.302-3 2.2-3 2.2zM36 11.898s0-1.398 1.398-2.296C38.602 8.8 40 9 40 9s0 1.3-1.398 2.2C37 12.3 36 11.897 36 11.897zM16.898 8s-1.5-.2-2.398-1.5c-.8-1.3-.398-2.5-.398-2.5s1.398.2 2.296 1.5c1 1.602.5 2.5.5 2.5zM12 12s-1.5.2-2.7-.8C8.103 10.3 8 9 8 9s1.398-.2 2.7.8C12.2 11 12 12 12 12zm12.398 28s1.403 1 1.204 3.602C25.5 45.8 24.102 47 24.102 47s-1.403-1.398-1.204-3.5c.204-2.602 1.5-3.5 1.5-3.5zm-7.597-1s.398 1.602-.602 3.2C15.301 43.601 14 44 14 44s-.5-1.7.5-3.2c1.2-1.902 2.3-1.8 2.3-1.8zM12 35s-.102 1.398-1.398 2.3C9.398 38.2 8 38 8 38s0-1.3 1.398-2.3C10.801 34.8 12 35 12 35zm20.102 4s1.5.2 2.398 1.5c.8 1.2.5 2.5.5 2.5s-1.398-.2-2.3-1.5c-1.098-1.602-.598-2.5-.598-2.5zM36 35s1.5-.3 2.7.8c1.198.9 1.3 2.2 1.3 2.2s-1.398.3-2.7-.8C35.8 36 36 35 36 35z" fill="#0097A7"/>
                <path d="M38 24c0 7.73-6.27 14-14 14s-14-6.27-14-14 6.27-14 14-14 14 6.27 14 14z" fill="none" stroke-width="2" stroke-linecap="butt" stroke-linejoin="miter" stroke="#E65100" stroke-opacity="1" stroke-miterlimit="10"/>
                <path d="M16.8 25.398c.098.403-.402.801-.5 1.204-.1.398-.198.699-.402.796-.199.204-.5.301-.699.5-.199.204-.8 1.204-1 1.301C13.5 27.602 13 25.9 13 24c0-.602.102-1.102.102-1.602.097 0 .699.301 1.097.602.5.3.801 1.3 1.2 1.5.402.2 1.3.602 1.402.898zM14.8 18c.598 0 .9-.5 1.098-.5.204 0 .301.102.5.102.102 0 .403-.102.403-.403 0-.3-.403-1-.403-1.097-.597.597-1.199 1.199-1.597 1.898zm3.5-3.102c0 .102-.3.403-.3.704 0 .296.2.597.5.597.5 0 .898-.5 1.602-.5.597 0 1.796-.5 1.796-1.199 0-.3-.296-.398-.597-.398s-1.301 0-1.7-.204c-.5.204-1 .5-1.5.801.098 0 .2.102.2.2zM26.603 29.5c0 .102.097.2.199.2.097 0 .199-.098.3-.2.2-.2.297-.5.297-.8v-.2c-.097-.102-.199-.102-.199-.102-.3 0-.5.5-.597.801v.301zM35 24c0 1.3-.2 2.5-.602 3.602-.097-.102-.296-.5-.296-.801 0-.2.199-.7.199-1.102 0-.398-.403-1.5-1.2-1.5-1 0-.902 1.5-1.402 1.5-.699 0-.699-2.5-1.597-2.5-.301 0-.704.5-1.102.801-.3.3-1 .3-1 1.2 0 .698-1.5.902-1.5 2.5 0 .5-.602 1.1-1 1.402-.3.296-.7 1.597-1.8 1.597-.598 0-1.2-1.199-1.2-2.398 0-.7.2-.903.2-1.602 0-.699-.302-2-1.7-2-.7 0-1.398-.398-1.398-2 0-1.5 1.597-1.5 1.597-2.898 0-.403.903-.801.903-1 0-.2-.301-.602-.301-.801 0-.2.3-.398.5-.398.199 0 .699.5.898.5.2 0 .301-.5.403-.903.097-.398 1.296-1 1.796-1s1.801.7 2.602.7c.7 0 3.2-.399 4-.399a11.338 11.338 0 0 1 2.398 4.102c0 .097.102.199.102.296.102.204.102.5.2.704 0 .199.1.296.1.5 0 .199.098.5.098.699v.398C35 23.5 35 23.7 35 24zm-8.8-2.7c0-.1-.2-.3-.5-.3-.302 0-.598-.398-1-.5-.302-.102-1.2-.7-1.5-.7-.302 0-.2 0-.2.2 0 0 .8 1 1.3 1.3.5.2.598.098.802.098.199 0 .296.204.597.204.403-.102.5-.204.5-.301z" fill="#CDDC39"/>
            </g>
        </g>
        <g color="white" id="qwant" transform="translate(0,365)">
            <circle cx="170" cy="0" r="10" fill="currentColor"/>
            <text x="200" y="0" font-family="Verdana" font-size="6" fill="white">Qwant 0,92%</text>
            <g transform="translate(159,-7) scale(0.12)">
                <defs>
                    <linearGradient id="qwantJaune" x1="36.40448" y1="152.43638" x2="116.50566" y2="152.43638" gradientTransform="matrix(1, 0, 0, -1, 0, 182)" gradientUnits="userSpaceOnUse">
                        <stop offset="0" stop-color="#ffda12"/>
                        <stop offset="1" stop-color="#efe333"/>
                    </linearGradient>
                </defs>
                <!--<title>logo-home2</title>
                <path d="M182.69188,177.0483v-.0721l-.61284-4.83059h0a.88808.88808,0,0,0-.86519-.757.45725.45725,0,0,0-.21629.036.51257.51257,0,0,1-.21629.0721,11.06541,11.06541,0,0,1-3.96541.721,4.2414,4.2414,0,0,1-3.49677-1.29776,7.07352,7.07352,0,0,1-1.00937-4.3259V155.85141h8.2913a.8579.8579,0,0,0,.79309-.82913v-4.86663a.87017.87017,0,0,0-.86519-.82913h-8.18316v-6.92144h0v-.18025a.89248.89248,0,0,0-.86519-.79309h-6.1644a.8466.8466,0,0,0-.86518.82913v7.02958h-4.75849a.854.854,0,0,0-.86518.86518v4.79453a.859.859,0,0,0,.68493.86518H164.451v12.14856c0,3.8212.86518,6.633,2.63158,8.47155s4.434,2.77579,8.039,2.77579a19.03853,19.03853,0,0,0,4.36194-.46863,13.95113,13.95113,0,0,0,2.77579-.90123.82744.82744,0,0,0,.54074-.757v-.036C182.69188,177.08434,182.69188,177.08434,182.69188,177.0483Z" transform="translate(-0.2 -0.78876)" fill="#11100e"/>
                <path d="M42.49679,170.41525a2.39066,2.39066,0,0,1-.32444-.68494c-.10815-.57678.39654-1.08147.68493-1.55011a13.52283,13.52283,0,0,0,.86518-1.58616,22.08083,22.08083,0,0,0,2.37925-10.81474,22.98464,22.98464,0,0,0-1.55011-7.93081,22.01539,22.01539,0,0,0-3.85726-6.34465,20.30786,20.30786,0,0,0-5.22712-4.36195,21.78044,21.78044,0,0,0-6.74119-2.66763,25.0156,25.0156,0,0,0-7.67847-.50469,22.55164,22.55164,0,0,0-14.05916,6.27255,22.16082,22.16082,0,0,0-6.66909,13.915,25.05249,25.05249,0,0,0,.46864,7.85871,23.17938,23.17938,0,0,0,2.956,7.10167A21.179,21.179,0,0,0,8.8269,174.633a22.2519,22.2519,0,0,0,6.56094,3.38863,21.74363,21.74363,0,0,0,3.9654.90123,22.86912,22.86912,0,0,0,3.85726.25235,31.645,31.645,0,0,0,3.677-.32445,19.95409,19.95409,0,0,0,2.01875-.39653c.54074-.14421,1.15357-.25235,1.36987-.82913a1.61645,1.61645,0,0,0-.28839-1.33382c-.25234-.54074-.54074-1.08147-.79308-1.62221-.50469-.97333-.97333-1.9827-1.478-2.956a1.02323,1.02323,0,0,0-.64889-.57678,1.62078,1.62078,0,0,0-.82913.036c-.32444.0721-.64889.10814-.97333.18025a15.41131,15.41131,0,0,1-4.07355,0,14.85253,14.85253,0,0,1-11.716-8.90413A15.28311,15.28311,0,0,1,8.35825,154.842a14.88563,14.88563,0,0,1,2.77578-7.06563,14.98532,14.98532,0,0,1,13.37423-6.05625,14.86842,14.86842,0,0,1,6.70514,2.27109,14.85918,14.85918,0,0,1,6.84934,11.716,14.77051,14.77051,0,0,1-1.18962,6.70514,14.563,14.563,0,0,1-3.82121,5.26318,1.733,1.733,0,0,0-.57679.68493,1.08674,1.08674,0,0,0,.03605.757L36.765,177.553c.2163.43259.43259,1.08147.86518,1.33382a2.112,2.112,0,0,0,1.04542.14421h6.5249a1.04712,1.04712,0,0,0,.93728-1.55011c-.39654-.79309-.82913-1.55011-1.22567-2.34319Z" transform="translate(-0.2 -0.78876)" fill="#1d1e1c"/>
                <path d="M80.99726,169.11749l5.22712-19.35839a.85451.85451,0,0,1,.82913-.61284h6.27255a.87722.87722,0,0,1,.86518.86518.61346.61346,0,0,1-.03605.25235l-9.12043,27.4334a.8866.8866,0,0,1-.79309.5047H78.29357a.88658.88658,0,0,1-.79309-.5047l-6.3807-18.67345-6.12835,18.70951v.036a.84075.84075,0,0,1-.757.46863h-5.84a.82534.82534,0,0,1-.79308-.54074l-9.15648-27.68573a.87722.87722,0,0,1,.86518-.86518H55.7989a.89072.89072,0,0,1,.721.50469l5.155,19.43049,6.0202-19.39443a.89977.89977,0,0,1,.79308-.54074h5.40737a.88658.88658,0,0,1,.79308.50469Z" transform="translate(-0.2 -0.78876)" fill="#1d1e1c"/>
                <path d="M117.19059,152.89536a9.69435,9.69435,0,0,0-3.85726-3.46072A11.69657,11.69657,0,0,0,107.926,148.209a12.82429,12.82429,0,0,0-7.20983,2.1269,14.43326,14.43326,0,0,0-4.93874,5.65972,17.23344,17.23344,0,0,0-1.73035,7.75056v.61284a17.27785,17.27785,0,0,0,1.76641,7.49822,13.08106,13.08106,0,0,0,4.83058,5.40737,12.73612,12.73612,0,0,0,6.88539,1.87456,13.37923,13.37923,0,0,0,4.79453-.79309,9.96865,9.96865,0,0,0,4.86663-3.85726l.0721,2.956a.88807.88807,0,0,0,.86518.757h5.876a.87722.87722,0,0,0,.86518-.86519V150.01142a.87722.87722,0,0,0-.86518-.86518h-5.876a.88987.88987,0,0,0-.86518.721v.03605Zm-1.73035,4.93874a9.524,9.524,0,0,1-.18025,11.86016,7.74806,7.74806,0,0,1-11.10313,0,8.50548,8.50548,0,0,1-2.16295-5.37132,8.9443,8.9443,0,0,1,2.1269-6.66909,7.26388,7.26388,0,0,1,5.58762-2.34319A7.45116,7.45116,0,0,1,115.46024,157.8341Z" transform="translate(-0.2 -0.78876)" fill="#1d1e1c"/>
                <path d="M137.63046,149.90329a.88808.88808,0,0,0-.86518-.757h-5.91206a.87722.87722,0,0,0-.86518.86518v27.32525a.87723.87723,0,0,0,.86518.86519h6.2365a.8545.8545,0,0,0,.82913-.61284V162.55654a8.33356,8.33356,0,0,1,1.58616-5.40737,5.44816,5.44816,0,0,1,4.434-1.9106q5.19108,0,5.19107,6.81328v15.57322a.888.888,0,0,0,.82913.61284h6.2365a.854.854,0,0,0,.86518-.86519V160.60988c0-4.00146-.90123-7.06563-2.70369-9.15648-1.80246-2.1269-4.434-3.17232-7.85871-3.17232a11.70944,11.70944,0,0,0-5.29923,1.15358,8.47677,8.47677,0,0,0-3.49677,3.35257Z" transform="translate(-0.2 -0.78876)" fill="#1d1e1c"/>-->
                <path d="M123.49919,105.41866c.50469,1.04542,1.00937,2.59554,2.09085,3.20837a5.00538,5.00538,0,0,0,2.52344.32444H143.7588a2.56645,2.56645,0,0,0,2.27109-3.74911c-.97333-1.87456-1.9827-3.71306-2.956-5.58762l-6.02021-11.35548a5.7487,5.7487,0,0,1-.757-1.65826s-.2163-.36049.0721-1.33382c.28839-.721,3.92935-7.89476,4.14565-8.61574,1.478-4.57824,19.46653-47.94535-31.579-52.3794a11.55993,11.55993,0,0,1,1.11753.68493,36.33607,36.33607,0,0,1,10.88684,10.85079,35.71276,35.71276,0,0,1,2.73974,33.2373,34.71632,34.71632,0,0,1-2.70369,5.119,35.35483,35.35483,0,0,1-6.41674,7.49822,3.7504,3.7504,0,0,0-1.33382,1.65826,2.49392,2.49392,0,0,0,.10814,1.83851Z" transform="translate(-0.2 -0.78876)" fill="#4ba2ea"/>
                <path d="M36.40448,48.74941c8.2192-5.58762,16.51051-5.94811,19.106,1.76641a1.61653,1.61653,0,0,0-.03605.39654A35.63007,35.63007,0,0,0,86.1523,90.38615a35.20365,35.20365,0,0,0,9.73327-.03605c.79309-.10814,1.55011-.25235,2.34319-.39654a4.70253,4.70253,0,0,1,1.73035-.14419c.90123,11.031-33.70594,13.915-55.11913-12.473-5.29923-6.52489-7.85871-19.68283-8.4355-28.587" transform="translate(-0.2 -0.78876)" fill="#ff3b4a"/>
                <path d="M143.29018,71.06382a52.19685,52.19685,0,0,1-3.28047,8.039c-.28839.54074-.54074,1.04542-.82913,1.58616-.39654.721-.82913,1.478-1.26172,2.199a13.08267,13.08267,0,0,0-1.55011,2.55949l.03605-.14419a22.579,22.579,0,0,0,.757-2.199,47.41378,47.41378,0,0,0-28.22648-58.79615c-.18025-.10815-.32444-.18025-.50469-.28839h0c1.36986.721-6.48884-19.07,9.84141-16.5105.68493.36049,1.36986.757,2.05481,1.15357a51.87766,51.87766,0,0,1,12.473,10.45425,52.39944,52.39944,0,0,1,9.22858,15.17668,55.053,55.053,0,0,1,3.677,18.96185A55.07978,55.07978,0,0,1,143.29018,71.06382Z" transform="translate(-0.2 -0.78876)" fill="#65cee7"/>
                <path d="M122.634,15.54816a9.822,9.822,0,0,1-.68493,3.56887,9.65588,9.65588,0,0,1-8.94018,6.05626,9.79667,9.79667,0,0,1-4.57824-1.15357h0A36.226,36.226,0,0,0,94.011,19.54961a35.036,35.036,0,0,0-18.349,3.28047,34.67684,34.67684,0,0,0-7.71451,4.93873,35.883,35.883,0,0,0-5.876,6.27255A36.25969,36.25969,0,0,0,55.69078,49.146C38.13484,27.66067,74.184-6.9465,114.63111,6.06723h0c.68493.18025,1.40591.39654,2.09085.61284.50469.25234,1.04542.50469,1.55011.79308h.03605A9.68163,9.68163,0,0,1,122.634,15.54816Z" transform="translate(-0.2 -0.78876)" fill="#87c966"/>
                <path d="M116.50566,6.57192a11.06021,11.06021,0,0,0-1.87456-.50469h0a47.12859,47.12859,0,0,0-9.37278-1.55011c-.93728-.0721-1.87456-.0721-2.84788-.0721A46.9904,46.9904,0,0,0,55.69076,49.14595a2.82766,2.82766,0,0,0-.0721.50469h0c-.03605.28839-.0721.57679-.10815.82913h0a9.64055,9.64055,0,0,1-9.48092,7.85871H45.7412a9.61243,9.61243,0,0,1-9.33672-9.62512c0-.43259.03605-.82913.0721-1.22567h0a53.396,53.396,0,0,1,4.83058-16.40236A51.57675,51.57675,0,0,1,52.23,15.9447a55.4146,55.4146,0,0,1,15.429-10.4182A54.74409,54.74409,0,0,1,85.86389.98431a64.16007,64.16007,0,0,1,10.85079.0721A53.68473,53.68473,0,0,1,104.24895,2.246,55.08808,55.08808,0,0,1,116.50566,6.57192Z" transform="translate(-0.2 -0.78876)" fill="url(#qwantJaune)"/>
                <path d="M107.88992,105.34656c-.50469,1.442-1.9827,1.69431-3.31652,2.01875-1.58616.39654-3.17232.68493-4.79453.93728-2.92.43259-5.876.61284-8.796.757a49.04025,49.04025,0,0,1-9.19253-.57679,61.17333,61.17333,0,0,1-9.48092-2.16295A52.00631,52.00631,0,0,1,52.30215,94.49576a51.12209,51.12209,0,0,1-7.85871-9.517,52.86178,52.86178,0,0,1-7.06563-16.97915,61.76468,61.76468,0,0,1-1.00938-19.106v-.14419a46.624,46.624,0,0,0,43.15082,43.8718c1.26172.10814,2.52344.14419,3.82121.14419a46.82746,46.82746,0,0,0,16.5826-2.99207.917.917,0,0,1,.25235.0721,2.49428,2.49428,0,0,1,1.55011,1.40591c1.18962,2.34319,2.37925,4.68639,3.53281,7.06563.03605.0721.0721.18025.10814.25235.61284,1.18962,1.18962,2.4153,1.80246,3.60491C107.70968,103.18361,108.32252,104.15694,107.88992,105.34656Z" transform="translate(-0.2 -0.78876)" fill="#af27cc"/>
            </g>
        </g>
        <g id="duckDuckGo" transform="translate(0,390)">
            <text x="200" y="0" font-family="Verdana" font-size="3" fill="white">DuckDuckGo 0,37%</text>
            <g transform="translate(157,-10) scale(0.1)">
                <circle fill="#de5833" cx="127" cy="79" r="60"/>
                <path fill="#ffffff" d="M177.8,57.5C175,50.9,171,45,166,40c-5.1-5.1-11-9-17.5-11.8c-6.8-2.9-14-4.3-21.5-4.3      c-7.4,0-14.7,1.5-21.5,4.3C98.9,30.9,93,34.9,88,40c-5.1,5.1-9,11-11.8,17.5c-2.9,6.8-4.3,14-4.3,21.5s1.5,14.7,4.3,21.5      c2.8,6.6,6.8,12.5,11.8,17.5c5.1,5.1,11,9,17.5,11.8c6.8,2.9,14,4.3,21.5,4.3c7.4,0,14.7-1.5,21.5-4.3C155,127,160.9,123,166,118      c5.1-5.1,9-11,11.8-17.5c2.9-6.8,4.3-14,4.3-21.5S180.7,64.3,177.8,57.5z M139,128.5c-3.2-5.4-11.6-20.5-11.6-31.7      c0-25.8,17.3-3.7,17.3-24.3c0-4.9-2.4-22.1-17.4-25.7c-3.7-4.9-12.4-9.6-26.2-7.7c0,0,2.3,0.7,4.9,2c0,0-5,0.7-5.2,4.1      c0,0,9.9-0.5,15.5,1.3C103.4,48.2,96.8,55,98,67.3c1.7,17.5,9.1,48.7,11.7,59.6C90.1,119.9,76,101.1,76,79c0-28.1,22.8-51,51-51      s51,22.8,51,51C177.9,103,161.3,123.1,139,128.5z"/>
                <path id="Beak_2_" fill="#fed30a" fill-rule="evenodd" clip-rule="evenodd" d="M124.2,87.3c0-6.6,9-8.7,12.4-8.7c9.2,0,22.2-5.9,25.4-5.8c3.3,0.1,5.4,1.4,5.4,2.9      c0,2.2-18.4,10.5-25.5,9.8c-6.8-0.6-8.4,0.1-8.4,2.9c0,2.4,4.9,4.6,10.3,4.6c8.1,0,16-3.6,18.4-1.9c2.1,1.5-5.5,6.9-14.2,6.9      C139.3,98,124.2,93.9,124.2,87.3z"/>
                <g>
                    <path fill="2d4f8d" d="M140.2,59.3c-2.4-3.1-6.7-3.2-8.2,0.4C134.3,57.9,137.1,57.5,140.2,59.3z"/>
                    <path fill="2d4f8d" d="M113.5,59.4c-3.3-2-8.8-2.2-8.5,4.1C106.6,59.6,108.8,58.9,113.5,59.4z"/>
                    <path fill="2d4f8d" d="M138.2,65.2c-1.8,0-3.3,1.5-3.3,3.3c0,1.8,1.5,3.3,3.3,3.3s3.3-1.5,3.3-3.3C141.5,66.7,140,65.2,138.2,65.2       z M139.4,68.3c-0.5,0-1-0.4-1-1c0-0.5,0.4-1,1-1s1,0.4,1,1C140.3,67.8,139.9,68.3,139.4,68.3z"/>
                    <path fill="2d4f8d" d="M112.6,67c-2.1,0-3.8,1.7-3.8,3.8c0,2.1,1.7,3.8,3.8,3.8c2.1,0,3.8-1.7,3.8-3.8       C116.4,68.7,114.7,67,112.6,67z M114,70.5c-0.6,0-1.1-0.5-1.1-1.1c0-0.6,0.5-1.1,1.1-1.1s1.1,0.5,1.1,1.1       C115.1,70,114.6,70.5,114,70.5z"/>
                </g>
                <g>
                    <path fill="#d5d7d8" d="M104.3,50.8c-4.8,3.5-7,8.9-6.3,16.5c1.7,17.5,9.1,48.8,11.7,59.7c0.9,0.3,1.8,0.6,2.7,0.9       c-1.6-6.6-9.3-38.8-12.7-63.5C98.8,57.8,101.4,53.9,104.3,50.8z"/>
                    <path fill="#d5d7d8" d="M116.2,46.5c0.4,0,0.7-0.1,0.7-0.1c-5.2-2.5-13.4-2.6-15.6-2.6c-0.2,0.4-0.4,0.9-0.4,1.4       C100.8,45.3,110.5,44.7,116.2,46.5z"/>
                    <path fill="#d5d7d8" d="M106.8,41.1c-1.6-1.1-2.9-1.8-3.7-2.2c-0.7,0.1-1.3,0.1-2,0.2c0,0,2.3,0.7,4.9,2c0,0-0.1,0-0.2,0       C106.5,41.1,106.8,41.1,106.8,41.1z"/>
                </g>
                <g>
                    <path fill="#67bd47" d="M147.1,107.6c-1.7-0.4-8.3,4.3-10.8,6.1c-0.1-0.5-0.2-0.9-0.3-1.1c-0.3-1-6.7-0.4-8.2,1.2       c-4-1.9-12-5.6-12.1-3.3c-0.3,3,0,15.5,1.6,16.4c1.2,0.7,8-3,11.4-4.9c0,0,0,0,0.1,0c2.1,0.5,6,0,7.4-0.9       c0.2-0.1,0.3-0.3,0.4-0.5c3.1,1.2,9.8,3.6,11.2,3.1C149.6,123.2,149.2,108.1,147.1,107.6z"/>
                    <path fill="#43a347" d="M128.8,122c-2.1-0.4-1.4-2.5-1.4-7.4c0,0,0,0,0,0c-0.5,0.3-0.9,0.7-0.9,1.1c0,4.9-0.8,7.1,1.4,7.4       c2.1,0.5,6,0,7.6-0.9c0.3-0.2,0.4-0.5,0.5-1C134.5,122.1,130.8,122.5,128.8,122z"/>
                </g>
            </g>
    
        </g>
        <animateTransform attributeName="transform" type="translate" dur="10s" values="0,0;-300,-600;-600,-1200;-600,-1200;0,0" begin="3s" repeatCount="1"/>
        <animateTransform attributeName="transform" additive="sum" type="scale" dur="10s" values="1; 2.5; 4; 4; 1" begin="3s" repeatCount="1"/>
    </g>
</svg>
