<svg enable-background="new 0 0 511.997 511.997" viewBox="0 0 500 500" xmlns="http://www.w3.org/2000/svg">
<rect fill="#3da2f7" x="0" y="0" width="480" height="480" rx="100" ry="100"/>
<g transform="translate(0,10) scale(.90)">
<path d="m211 211.053c0 49.626 40.374 90 90 90 44.516 0 81.58-32.489 88.743-75h16.257v75h60v-30h-30v-75h-120v-46h90v-30h-90v-32.58c17.459-6.192 30-22.865 30-42.42 0-24.813-20.187-45-45-45s-45 20.187-45 45c0 19.555 12.541 36.228 30 42.42v33.871c-41.601 7.097-75 44.116-75 89.709zm148.101 15c-6.677 25.849-30.195 45-58.101 45-33.084 0-60-26.916-60-60 0-28.372 19.151-52.281 45-59.07v74.07zm-58.101-196c8.271 0 15 6.729 15 15s-6.729 15-15 15-15-6.729-15-15 6.729-15 15-15z"/>
<path d="m398.394 340.449c-21.246 16.995-32.457 26.349-40.17 30.946-8.693-31.786-38.015-55.006-72.223-55.006-21.936 0-43.481-.784-85.145-10.42-47.845-10.982-70.532-.214-125.34 25.796-52.842 25.076-66.773 30.531-75.516 34.475v145.704c18.927-6.518 21.199-4.307 71.827-26.21 39.045-16.892 72.766-31.48 114.276-21.587 34.527 8.229 87.264 17.855 146.365 6.499 62.082-11.929 119.444-45.161 170.495-98.772l9.034-9.487-8.185-10.229c-25.837-32.288-73.127-37.54-105.418-11.709zm-205.336 94.515c-51.22-12.206-92.867 5.812-133.143 23.236-9.778 4.23-19.761 8.549-29.915 12.441v-84.802c23.586-10.46 42.688-19.525 58.377-26.971 53.659-25.465 68.081-32.308 105.743-23.665 44.664 10.33 68.947 11.186 91.88 11.186 19.328 0 36.051 12.334 42.262 29.665h-117.262v29.99s124.993.001 125.213.001c30.827-.001 35.181-5.582 80.921-42.169 15.813-12.649 37.623-12.876 53.536-1.999-102.697 99.995-207.118 89.886-277.612 73.087z"/>
</g>
</svg>