<svg enable-background="new 0 0 500 500" viewBox="0 0 500 500" xmlns="http://www.w3.org/2000/svg">
<rect fill="#7cdd71" x="0" y="0" width="480" height="480" rx="100" ry="100"/>
<g transform="translate(20,20)">
<path d="m179.594 87.286c-12.743-13.074-32.667-20.2-57.617-20.6-22.622-.333-45.066 4.044-65.907 12.852-3.05 1.295-4.474 4.817-3.179 7.867.512 1.206 1.404 2.211 2.54 2.862 12.822 7.449 22.731 19.035 28.1 32.857 1.4 3.662 2.482 7.479 3.63 11.521.852 3 1.733 6.106 2.759 9.158 1.561 4.946 3.77 9.663 6.569 14.029 9.354 14.126 24.826 22.136 42.207 22.136 18.151-.011 35.259-8.486 46.265-22.919 7.867 7.56 14.947 15.898 21.133 24.886.325.87.847 1.652 1.525 2.286 7.482 11.236 12.715 23.816 15.41 37.044 6.116 31.648-4.975 65.654-32.95 101.167-14.605-22.407-44.274-29.323-67.282-15.685l-47.9 28.471c-2.848 1.693-3.785 5.375-2.092 8.223l9.657 16.245-23.38 13.9c-2.868 1.66-3.848 5.33-2.188 8.198s5.33 3.848 8.198 2.188c.041-.024.082-.048.122-.072l23.379-13.9 19.314 32.491-23.38 13.9c-2.864 1.668-3.833 5.341-2.166 8.204 1.668 2.864 5.341 3.833 8.204 2.166.031-.018.062-.036.092-.055l23.38-13.9 9.656 16.244c1.693 2.849 5.375 3.785 8.223 2.092h.001l47.9-28.471c23.649-14.094 31.427-44.672 17.387-68.353l-.543-.914c32.332-39.625 45.17-78.104 38.152-114.418-2.96-14.643-8.722-28.576-16.968-41.033 1.243-15.163 4.127-30.147 8.6-44.688 12.819 9.829 28.462 15.268 44.614 15.51.422.006.841.01 1.26.01 25.135 0 46.805-12.456 58.141-33.494 3.081-5.936 5.363-12.253 6.788-18.787.976-4.1 1.76-8.266 2.518-12.3 1.035-5.5 2.012-10.7 3.437-15.766 5.536-19.269 17.459-36.083 33.812-47.681 2.714-1.901 3.373-5.643 1.471-8.357-.751-1.073-1.833-1.87-3.08-2.27-28.235-9.014-58.035-12.06-87.51-8.946-32.281 3.464-57.21 14.986-72.093 33.319-17.142 21.546-20.405 51.014-8.394 75.789 2.504 5.019 5.648 9.691 9.355 13.9-4.334 12.843-7.489 26.054-9.426 39.47-5.068-6.123-10.512-11.925-16.3-17.373.129-.313.263-.624.386-.941 7.552-20.019 2.952-42.594-11.83-58.062zm-5.9 305.073-42.74 25.405-35.1-59.046-9.66-16.251 42.741-25.406c17.982-10.664 41.203-4.759 51.906 13.2l6.054 10.185c10.666 17.984 4.76 41.207-13.201 51.911zm51.43-350.289c16.225-19.988 43.789-26.776 64.056-28.951 7.013-.75 14.061-1.125 21.114-1.123 17.024.002 33.98 2.149 50.468 6.39-13.929 12.541-24.022 28.769-29.111 46.808-1.568 5.58-2.641 11.282-3.678 16.8-.766 4.073-1.489 7.92-2.4 11.738-1.188 5.518-3.097 10.855-5.678 15.874-9.2 17.078-26.937 27.187-47.591 27.186-.347 0-.7 0-1.048-.009-14.976-.186-29.392-5.724-40.64-15.613.338-.882.682-1.765 1.039-2.651 16.705-41.533 44.405-66.712 82.339-74.841 3.246-.666 5.338-3.837 4.672-7.083s-3.837-5.338-7.083-4.672c-.035.007-.07.015-.104.022-40.56 8.692-71.516 36.027-89.721 79.133-1.339-1.956-2.541-4.002-3.6-6.123-9.854-19.831-6.991-45.691 6.966-62.885zm-105.05 54.959c-2.922-1.564-6.558-.463-8.122 2.459s-.463 6.558 2.459 8.122c24.652 13.194 45.202 26.947 61.651 41.259-7.057 10.272-19.006 17.383-32.44 18.828-15.316 1.651-29.2-4.517-37.129-16.494-2.218-3.499-3.966-7.274-5.2-11.228-.935-2.781-1.739-5.612-2.59-8.61-1.168-4.114-2.376-8.368-3.962-12.525-4.838-12.637-12.941-23.764-23.481-32.249 16.269-5.486 33.354-8.161 50.521-7.91 15.142.244 35.972 3.389 49.217 16.979 10.482 10.753 14.5 27.559 10.356 41.985-16.702-14.132-37.129-27.671-61.28-40.616z"/>
</g>
</svg>